<svg version="1.2" baseProfile="tiny-ps" xmlns="http://www.w3.org/2000/svg" viewBox="0 0 526 180" width="526" height="180">
	<title>template</title>
	<style>
		tspan { white-space:pre }
		.shp0 { fill: #fff584 } 
		.shp1 { fill: #f8fa7e } 
		.txt2 { font-size: 25px;fill: #000000;font-weight: 400;font-family: "SourceHanSansSC-Regular", "Source Han Sans SC" } 
		.txt3 { font-size: 73px;fill: #161405;font-weight: 400;font-family: "GamjaFlower-Regular", "Gamja Flower" } 
		.txt4 { font-size: 73px;fill: #161405;font-weight: 400;font-family: "Pacifico-Regular", "Pacifico" } 
	</style>
	<path id="图层 1 copy" class="shp0" d="M422.5 119C396.23 119 375 98.66 375 73.5C375 48.34 396.23 28 422.5 28C448.77 28 470 48.34 470 73.5C470 98.66 448.77 119 422.5 119Z" />
	<g id="flower">
		<path id="Layer" fill-rule="evenodd" class="shp1" d="M347.43 337.21C346.6 337.21 346.19 336.82 345.37 336.82C345.78 337.21 346.6 337.99 347.02 338.38C354.44 345.38 354.44 356.28 347.02 362.89C340 369.9 328.44 369.9 321.02 362.89C320.6 362.51 320.19 362.12 319.78 361.73C319.78 362.12 319.78 362.89 319.78 363.67C319.78 373.4 311.52 381.18 301.62 381.18C291.3 381.18 283.05 373.4 283.05 363.67C283.05 363.28 283.05 362.51 283.05 361.73C282.63 362.51 282.22 362.89 281.4 363.67C274.38 370.29 262.83 370.29 255.4 363.67C248.38 356.67 248.38 345.77 255.4 339.16C255.81 338.38 256.63 337.99 257.05 337.6C256.22 337.6 255.4 337.99 254.57 337.99C244.25 337.99 236 330.21 236 320.48C236 310.75 244.25 302.97 254.57 302.97C255.4 302.97 255.81 302.97 256.63 303.36C256.22 302.58 255.4 302.19 254.98 301.8C247.56 294.8 247.56 283.9 254.98 277.29C262 270.28 273.56 270.28 280.98 277.29C281.4 277.68 281.81 278.07 282.22 278.46C282.22 277.68 282.22 276.9 282.22 276.12C282.22 266.78 290.48 259 300.79 259C310.7 259 318.95 266.78 318.95 276.12C318.95 276.9 318.95 277.68 318.95 278.07C319.37 277.68 319.78 276.9 320.6 276.51C327.62 269.9 339.17 269.9 346.6 276.51C353.62 283.51 353.62 294.41 346.6 301.02C346.19 301.41 345.37 302.19 344.95 302.58C345.78 302.19 346.6 302.19 347.43 302.19C357.75 302.19 366 309.97 366 319.7C366 329.43 357.75 337.21 347.43 337.21ZM334.22 320.09C334.22 302.97 319.37 288.96 301.21 288.96C282.63 288.96 268.19 302.97 268.19 320.09C268.19 337.21 282.63 351.22 301.21 351.22C319.37 351.22 334.22 337.21 334.22 320.09Z" />
	</g>
	<text id="满眼星辰皆是你，无关风月无关雨  " style="transform: matrix(1,0,0,1,444,245.68)" >
		<tspan x="-375" y="0" class="txt2">满眼星辰皆是你</tspan><tspan  y="0" class="txt2">，</tspan><tspan  y="0" class="txt2">无关风月无关雨</tspan><tspan  y="0" class="txt2">
</tspan>
	</text>
	<text id="I Saw The Sign. " style="transform: matrix(1,0,0,1,457,107)" >
		<tspan x="-398.874" y="0" class="txt3">I Saw The Sign</tspan><tspan  y="0" class="txt4">.
</tspan>
	</text>
	<text id=" " style="transform: matrix(1,0,0,1,1119,379)" >
	</text>
	<text id=" " style="transform: matrix(1,0,0,1,1064,377)" >
	</text>
	<text id=" " style="transform: matrix(1,0,0,1,216,277)" >
	</text>
	<text id=" " style="transform: matrix(1,0,0,1,204,254)" >
	</text>
</svg>